<?xml version="1.0" encoding="utf-8"?>
<!-- Generator: Adobe Illustrator 24.0.0, SVG Export Plug-In . SVG Version: 6.00 Build 0)  -->
<svg version="1.1" id="solowPink" xmlns="http://www.w3.org/2000/svg" xmlns:xlink="http://www.w3.org/1999/xlink" x="0px" y="0px"
	 viewBox="0 0 320 320" style="enable-background:new 0 0 320 320;" xml:space="preserve">
<style type="text/css">
	.st0{clip-path:url(#SVGID_2_);}
	.st1{fill-rule:evenodd;clip-rule:evenodd;fill:#54694F;}
	.st2{fill-rule:evenodd;clip-rule:evenodd;fill:#234721;}
	.st3{fill-rule:evenodd;clip-rule:evenodd;fill:#212D33;}
	.st4{fill:#212D33;}
	.st5{fill:#DDD196;}
	.st6{fill-rule:evenodd;clip-rule:evenodd;fill:#D0B92B;}
	.st7{fill:none;}
	.st8{fill-rule:evenodd;clip-rule:evenodd;fill:#5A869C;}
	.st9{fill-rule:evenodd;clip-rule:evenodd;fill:#577B80;}
	.st10{fill-rule:evenodd;clip-rule:evenodd;fill:#494956;}
	.st11{fill-rule:evenodd;clip-rule:evenodd;fill:#4AA1AC;}
	.st12{fill-rule:evenodd;clip-rule:evenodd;fill:#539F86;}
	.st13{fill:none;stroke:#E75665;stroke-width:4;stroke-miterlimit:10;}
	.st14{fill-rule:evenodd;clip-rule:evenodd;fill:#383849;}
	.st15{fill-rule:evenodd;clip-rule:evenodd;fill:#E598AE;}
	.st16{fill:#2B383D;}
	.st17{fill-rule:evenodd;clip-rule:evenodd;fill:#BFAF62;}
	.st18{fill:none;stroke:#FDFFFC;stroke-width:30;stroke-linecap:round;stroke-miterlimit:10;}
	.st19{fill:none;stroke:#FDFFFC;stroke-width:30;stroke-linecap:round;stroke-miterlimit:10;stroke-dasharray:0,37.71;}
</style>
<g>
	<defs>
		<rect id="SVGID_1_" x="28" y="28" width="264" height="264"/>
	</defs>
	<clipPath id="SVGID_2_">
		<use xlink:href="#SVGID_1_"  style="overflow:visible;"/>
	</clipPath>
	<g class="st0">
		<g>
			<path class="st1" d="M-93.4,248c2.1,0.1,216.4-59.6,216.4-59.6l222.8,141.9l-370.2,92.5L-93.4,248z"/>
			<g>
				<polygon class="st2" points="349.7,327 252.4,249.8 252.4,-41.9 349.7,11.8 				"/>
				<polygon class="st3" points="305.2,16.1 15.7,16.1 60.7,292.8 365.4,292.8 				"/>
				<polygon class="st4" points="206.5,104.4 159.1,189.2 230.1,312.7 342.4,350.4 463,239.8 				"/>
				<polygon class="st5" points="156.2,4.8 165.7,168.9 155.1,243.3 249.3,156.9 274.1,11.8 				"/>
				<polygon class="st6" points="224.6,82.7 194,153.8 130.3,179.5 155.1,16.1 				"/>
				<polygon class="st7" points="205.3,80.7 201.3,113.3 206.4,111.6 207.8,112.2 213.5,114.7 215.4,128.1 203.3,140.5 209.3,147.3 
					286.6,137.9 				"/>
				<polygon class="st8" points="155.1,172 154.7,173.8 171.4,162.5 171.3,162.3 				"/>
				<polygon class="st8" points="110.9,203.6 115.4,201 115.7,200.2 				"/>
				<polygon class="st9" points="8.9,215.9 61.9,232.5 66.5,229.8 50.6,207.9 41.2,195 				"/>
				<polygon class="st10" points="41.2,195 50.6,207.9 67.7,215 97.8,198.1 100,192.4 128.9,177.4 128.3,172.5 141.5,165 
					137.8,130.3 40.6,65.2 				"/>
				<polygon class="st11" points="110.9,203.6 115.4,201 115.7,200.2 				"/>
				<polygon class="st3" points="106.7,206.6 81.1,249.8 71.7,265.6 60.7,292.8 122.9,311.3 123.6,308.4 133.8,264.3 149.9,194.2 
					135.6,196.1 126,200 121.8,204.6 102.6,236.9 100.3,240.7 90.6,262.9 81.1,249.8 				"/>
				<polygon class="st12" points="155.1,172 154.7,173.8 171.4,162.5 171.3,162.3 				"/>
				<polygon class="st6" points="121.8,204.6 89.1,263.1 228.4,299.7 219.2,197.8 181.9,180.5 167.4,191.9 155.6,193.4 150.6,191.2 
					149.9,194.2 135.6,196.1 126,200 				"/>
				<polyline class="st13" points="81.1,249.8 81.1,249.8 66.8,230.2 66.5,229.8 				"/>
				<polygon class="st10" points="130.8,186.4 -17.2,265.1 34.1,309.7 67.3,286.8 				"/>
				<polygon class="st3" points="110.7,211.3 68.5,236.7 52.6,214.9 69.7,222 99.9,205 102,199.3 130.9,184.4 130.3,179.5 
					174.7,154.2 187,147.7 192.7,144.7 193.7,117 208.4,118.6 209.8,119.2 224.6,125.9 212.5,149.9 209.6,150.1 212,157.1 
					205.5,170.6 183.9,187.5 183.9,187.5 169.4,198.8 123.8,211.5 74.5,299.7 62.7,299.7 108.7,213.6 				"/>
				<g>
					<polygon class="st14" points="171.4,162.5 181.9,180.5 203.5,163.7 210,150.2 205.9,138.4 					"/>
					<polygon class="st14" points="106.7,206.6 60.7,292.8 72.5,292.8 121.8,204.6 149.9,194.2 150.6,191.2 153.6,178.6 
						154.7,173.8 155.1,172 117.9,194 					"/>
					<polygon class="st3" points="50.6,207.9 66.5,229.8 115.7,200.2 117.9,194 155.1,172 184.2,155.2 172.7,147.2 128.3,172.5 
						128.9,177.4 100,192.4 97.8,198.1 67.7,215 					"/>
					<polygon class="st14" points="191.7,110.1 190.7,137.7 185,140.7 189.3,150.5 198.9,144 207.8,112.2 206.4,111.6 					"/>
					<polygon class="st3" points="207.8,112.2 198.9,144 210.5,142.9 222.6,119 					"/>
					<path class="st13" d="M89.9,232.3"/>
					<polygon class="st15" points="153.3,169.7 149.6,195.4 167.4,191.9 181.9,180.5 169.8,160.2 					"/>
					<polygon class="st15" points="172.7,147.2 188.9,161.3 193.9,157.8 185,140.7 					"/>
				</g>
				<polygon class="st16" points="-68.5,35 27.8,4.8 81.1,254.6 22.8,368.4 				"/>
				<polygon class="st17" points="56.8,341.5 178.3,225.9 268.2,292.8 234.7,330.3 				"/>
			</g>
			<rect x="32" y="53" class="st7" width="302.2" height="239.8"/>
		</g>
	</g>
</g>
<g id="border">
	<line class="st18" x1="292" y1="292" x2="292" y2="292"/>
	<line class="st19" x1="254.3" y1="292" x2="46.8" y2="292"/>
	<line class="st18" x1="28" y1="292" x2="28" y2="292"/>
	<line class="st19" x1="28" y1="254.3" x2="28" y2="46.9"/>
	<line class="st18" x1="28" y1="28" x2="28" y2="28"/>
	<line class="st19" x1="65.7" y1="28" x2="273.1" y2="28"/>
	<line class="st18" x1="292" y1="28" x2="292" y2="28"/>
	<line class="st19" x1="292" y1="65.7" x2="292" y2="273.1"/>
</g>
</svg>
