<svg xmlns="http://www.w3.org/2000/svg" xmlns:xlink="http://www.w3.org/1999/xlink" viewBox="0 0 556.39 464.7">
  <defs>
    <style>
      .cls-1, .cls-15, .cls-17, .cls-21, .cls-22, .cls-23, .cls-9 {
        fill: none;
      }

      .cls-2 {
        clip-path: url(#clip-path);
      }

      .cls-3 {
        fill: #54694f;
      }

      .cls-10, .cls-11, .cls-12, .cls-13, .cls-14, .cls-16, .cls-17, .cls-18, .cls-20, .cls-24, .cls-26, .cls-27, .cls-28, .cls-29, .cls-3, .cls-30, .cls-31, .cls-4, .cls-5, .cls-8, .cls-9 {
        fill-rule: evenodd;
      }

      .cls-4 {
        fill: #234721;
      }

      .cls-5, .cls-6 {
        fill: #212d33;
      }

      .cls-7 {
        fill: #ddd196;
      }

      .cls-8 {
        fill: #d0b92b;
      }

      .cls-10 {
        fill: #5a869c;
      }

      .cls-11 {
        fill: #577b80;
      }

      .cls-12 {
        fill: #494956;
      }

      .cls-13 {
        fill: #4aa1ac;
      }

      .cls-14 {
        fill: #539f86;
      }

      .cls-15, .cls-17 {
        stroke: #e75665;
        stroke-width: 4px;
      }

      .cls-15, .cls-17, .cls-21, .cls-22, .cls-23 {
        stroke-miterlimit: 10;
      }

      .cls-16 {
        fill: #383849;
      }

      .cls-18 {
        fill: #e598ae;
      }

      .cls-19 {
        fill: #2b383d;
      }

      .cls-20 {
        fill: #bfaf62;
      }

      .cls-21, .cls-22, .cls-23 {
        stroke: #fdfffc;
        stroke-linecap: round;
        stroke-width: 30px;
      }

      .cls-22 {
        stroke-dasharray: 0 37.71;
      }

      .cls-23 {
        stroke-dasharray: 0 37.71;
      }

      .cls-24 {
        fill: #1e778c;
      }

      .cls-25 {
        fill: #06191c;
      }

      .cls-26 {
        fill: #2b98aa;
      }

      .cls-27 {
        fill: #1b5966;
      }

      .cls-28 {
        fill: #0b262d;
      }

      .cls-29 {
        fill: #edcd33;
      }

      .cls-30 {
        fill: #101112;
      }

      .cls-31 {
        fill: #15333f;
      }
    </style>
    <clipPath id="clip-path" transform="translate(103.35 51.85)">
      <rect class="cls-1" x="18" y="18" width="264" height="264"/>
    </clipPath>
  </defs>
  <title>solow</title>
  <g id="pinkheart">
    <g>
      <g class="cls-2">
        <g>
          <path class="cls-3" d="M-103.35,238c2.07.05,216.4-59.56,216.4-59.56L335.84,320.29-34.4,412.84Z" transform="translate(103.35 51.85)"/>
          <g>
            <polygon class="cls-4" points="443.09 368.86 345.73 291.67 345.73 0 443.09 53.61 443.09 368.86"/>
            <polygon class="cls-5" points="398.58 57.92 109.08 57.92 154.01 334.6 458.76 334.6 398.58 57.92"/>
            <polygon class="cls-6" points="299.87 146.27 252.49 231.02 323.48 354.54 435.74 392.3 556.39 281.63 299.87 146.27"/>
            <polygon class="cls-7" points="249.59 46.66 259.03 210.78 248.48 285.12 342.66 198.76 367.44 53.61 249.59 46.66"/>
            <polygon class="cls-8" points="317.99 124.59 287.36 195.61 223.68 221.31 248.48 57.92 317.99 124.59"/>
            <polygon class="cls-9" points="298.63 122.53 294.67 155.17 299.77 153.47 301.16 154.06 306.89 156.52 308.75 169.95 296.69 182.36 302.67 189.1 379.93 179.78 298.63 122.53"/>
            <polygon class="cls-10" points="248.43 213.81 248.01 215.62 264.73 204.39 264.62 204.19 248.43 213.81"/>
            <polygon class="cls-10" points="204.24 245.49 208.8 242.81 209.09 242.01 204.24 245.49"/>
            <polygon class="cls-11" points="102.21 257.77 155.21 274.31 159.82 271.6 143.97 249.78 134.54 236.81 102.21 257.77"/>
            <polygon class="cls-12" points="134.54 236.81 143.97 249.78 161.01 256.87 191.2 239.91 193.4 234.23 222.27 219.3 221.68 214.35 234.84 206.85 231.15 172.13 134 107.06 134.54 236.81"/>
            <polygon class="cls-13" points="204.24 245.49 208.8 242.81 209.09 242.01 204.24 245.49"/>
            <polygon class="cls-5" points="200.04 248.5 174.41 291.67 165.03 307.47 154.01 334.6 216.29 353.12 216.96 350.23 227.12 306.18 243.3 236.05 228.99 237.95 219.33 241.87 215.18 246.44 195.93 278.76 193.65 282.58 183.92 304.75 174.41 291.67 200.04 248.5"/>
            <polygon class="cls-14" points="248.43 213.81 248.01 215.62 264.73 204.39 264.62 204.19 248.43 213.81"/>
            <polygon class="cls-8" points="215.18 246.44 182.46 304.96 321.7 341.55 312.54 239.67 275.29 222.36 260.76 233.73 248.96 235.3 243.99 233.07 243.3 236.05 228.99 237.95 219.33 241.87 215.18 246.44"/>
            <polyline class="cls-15" points="174.41 291.67 174.41 291.67 160.17 272.07 159.82 271.6"/>
            <polygon class="cls-12" points="224.19 228.22 76.11 306.92 127.47 351.54 160.62 328.64 224.19 228.22"/>
            <polygon class="cls-5" points="204.07 253.18 161.82 278.55 145.97 256.73 163.01 263.82 193.21 246.86 195.4 241.19 224.27 226.25 223.68 221.31 268.05 196.01 280.33 189.54 286.05 186.53 287.07 158.89 301.77 160.42 303.16 161.02 317.99 167.77 305.84 191.73 302.96 192 305.4 198.99 298.83 212.47 277.29 229.31 277.29 229.31 262.76 240.68 217.19 253.39 167.89 341.55 156.01 341.55 202.04 255.45 204.07 253.18"/>
            <g>
              <polygon class="cls-16" points="264.73 204.39 275.29 222.36 296.82 205.52 303.39 192.03 299.3 180.28 264.73 204.39"/>
              <polygon class="cls-16" points="200.04 248.5 154.01 334.6 165.89 334.6 215.18 246.44 243.3 236.05 243.99 233.07 246.91 220.42 248.01 215.62 248.43 213.81 211.29 235.89 200.04 248.5"/>
              <polygon class="cls-5" points="143.97 249.78 159.82 271.6 209.09 242.01 211.29 235.89 248.43 213.81 277.56 197.08 266.04 189.06 221.68 214.35 222.27 219.3 193.4 234.23 191.2 239.91 161.01 256.87 143.97 249.78"/>
              <polygon class="cls-16" points="285.07 151.93 284.05 179.57 278.32 182.59 282.69 192.33 292.3 185.87 301.16 154.06 299.77 153.47 285.07 151.93"/>
              <polygon class="cls-5" points="301.16 154.06 292.3 185.87 303.83 184.77 315.98 160.81 301.16 154.06"/>
              <path class="cls-17" d="M79.87,222.32" transform="translate(103.35 51.85)"/>
              <polygon class="cls-18" points="246.66 211.54 242.92 237.25 260.76 233.73 275.29 222.36 263.1 202.05 246.66 211.54"/>
              <polygon class="cls-18" points="266.04 189.06 282.22 203.16 287.28 199.68 278.32 182.59 266.04 189.06"/>
            </g>
            <polygon class="cls-19" points="24.84 76.81 121.11 46.66 174.41 296.44 116.15 410.2 24.84 76.81"/>
            <polygon class="cls-20" points="150.15 383.33 271.69 267.75 361.52 334.6 328.02 372.14 150.15 383.33"/>
          </g>
          <rect class="cls-1" x="125.35" y="94.85" width="302.2" height="239.75"/>
        </g>
      </g>
      <g>
        <line class="cls-21" x1="385.35" y1="333.85" x2="385.35" y2="333.85"/>
        <line class="cls-22" x1="347.63" y1="333.85" x2="140.2" y2="333.85"/>
        <line class="cls-21" x1="121.35" y1="333.85" x2="121.35" y2="333.85"/>
        <line class="cls-23" x1="121.35" y1="296.14" x2="121.35" y2="88.71"/>
        <line class="cls-21" x1="121.35" y1="69.85" x2="121.35" y2="69.85"/>
        <line class="cls-22" x1="159.06" y1="69.85" x2="366.49" y2="69.85"/>
        <line class="cls-21" x1="385.35" y1="69.85" x2="385.35" y2="69.85"/>
        <line class="cls-23" x1="385.35" y1="107.57" x2="385.35" y2="315"/>
      </g>
    </g>
  </g>
  <g id="blueish">
    <g>
      <g class="cls-2">
        <g>
          <path class="cls-3" d="M-103.35,238c2.07.05,216.4-59.56,216.4-59.56L335.84,320.29-34.4,412.84Z" transform="translate(103.35 51.85)"/>
          <g>
            <polygon class="cls-4" points="443.09 368.86 345.73 291.67 345.73 0 443.09 53.61 443.09 368.86"/>
            <polygon class="cls-24" points="398.58 57.92 109.08 57.92 154.01 334.6 458.76 334.6 398.58 57.92"/>
            <polygon class="cls-25" points="299.87 146.27 252.49 231.02 323.48 354.54 435.74 392.3 556.39 281.63 299.87 146.27"/>
            <polygon class="cls-25" points="249.59 46.66 259.03 210.78 248.48 285.12 342.66 198.76 367.44 53.61 249.59 46.66"/>
            <polygon class="cls-26" points="317.99 124.59 287.36 195.61 223.68 221.31 248.48 57.92 317.99 124.59"/>
            <polygon class="cls-9" points="298.63 122.53 294.67 155.17 299.77 153.47 301.16 154.06 306.89 156.52 308.75 169.95 296.69 182.36 302.67 189.1 379.93 179.78 298.63 122.53"/>
            <polygon class="cls-10" points="248.43 213.81 248.01 215.62 264.73 204.39 264.62 204.19 248.43 213.81"/>
            <polygon class="cls-10" points="204.24 245.49 208.8 242.81 209.09 242.01 204.24 245.49"/>
            <polygon class="cls-11" points="102.21 257.77 155.21 274.31 159.82 271.6 143.97 249.78 134.54 236.81 102.21 257.77"/>
            <polygon class="cls-27" points="134.54 236.81 143.97 249.78 161.01 256.87 191.2 239.91 193.4 234.23 222.27 219.3 221.68 214.35 234.84 206.85 231.15 172.13 134 107.06 134.54 236.81"/>
            <polygon class="cls-13" points="204.24 245.49 208.8 242.81 209.09 242.01 204.24 245.49"/>
            <polygon class="cls-28" points="200.04 248.5 174.41 291.67 165.03 307.47 154.01 334.6 216.29 353.12 216.96 350.23 227.12 306.18 243.3 236.05 228.99 237.95 219.33 241.87 215.18 246.44 195.93 278.76 193.65 282.58 183.92 304.75 174.41 291.67 200.04 248.5"/>
            <polygon class="cls-14" points="248.43 213.81 248.01 215.62 264.73 204.39 264.62 204.19 248.43 213.81"/>
            <polygon class="cls-28" points="215.18 246.44 182.46 304.96 321.7 341.55 312.54 239.67 275.29 222.36 260.76 233.73 248.96 235.3 243.99 233.07 243.3 236.05 228.99 237.95 219.33 241.87 215.18 246.44"/>
            <polyline class="cls-15" points="174.41 291.67 174.41 291.67 160.17 272.07 159.82 271.6"/>
            <polygon class="cls-27" points="224.19 228.22 76.11 306.92 127.47 351.54 160.62 328.64 224.19 228.22"/>
            <polygon class="cls-29" points="204.07 253.18 161.82 278.55 145.97 256.73 163.01 263.82 193.21 246.86 195.4 241.19 224.27 226.25 223.68 221.31 268.05 196.01 280.33 189.54 286.05 186.53 287.07 158.89 301.77 160.42 303.16 161.02 317.99 167.77 305.84 191.73 302.96 192 305.4 198.99 298.83 212.47 277.29 229.31 277.29 229.31 262.76 240.68 217.19 253.39 167.89 341.55 156.01 341.55 202.04 255.45 204.07 253.18"/>
            <g>
              <polygon class="cls-30" points="264.73 204.39 275.29 222.36 296.82 205.52 303.39 192.03 299.3 180.28 264.73 204.39"/>
              <polygon class="cls-30" points="200.04 248.5 154.01 334.6 165.89 334.6 215.18 246.44 243.3 236.05 243.99 233.07 246.91 220.42 248.01 215.62 248.43 213.81 211.29 235.89 200.04 248.5"/>
              <polygon class="cls-30" points="143.97 249.78 159.82 271.6 209.09 242.01 211.29 235.89 248.43 213.81 277.56 197.08 266.04 189.06 221.68 214.35 222.27 219.3 193.4 234.23 191.2 239.91 161.01 256.87 143.97 249.78"/>
              <polygon class="cls-30" points="285.07 151.93 284.05 179.57 278.32 182.59 282.69 192.33 292.3 185.87 301.16 154.06 299.77 153.47 285.07 151.93"/>
              <polygon class="cls-30" points="301.16 154.06 292.3 185.87 303.83 184.77 315.98 160.81 301.16 154.06"/>
              <path class="cls-17" d="M79.87,222.32" transform="translate(103.35 51.85)"/>
              <polygon class="cls-29" points="246.66 211.54 242.92 237.25 260.76 233.73 275.29 222.36 263.1 202.05 246.66 211.54"/>
              <polygon class="cls-29" points="266.04 189.06 282.22 203.16 287.28 199.68 278.32 182.59 266.04 189.06"/>
            </g>
            <polygon class="cls-19" points="24.84 76.81 121.11 46.66 174.41 296.44 116.15 410.2 24.84 76.81"/>
            <polygon class="cls-31" points="150.15 383.33 271.69 267.75 361.52 334.6 328.02 372.14 150.15 383.33"/>
          </g>
          <rect class="cls-1" x="125.35" y="94.85" width="302.2" height="239.75"/>
        </g>
      </g>
      <g>
        <line class="cls-21" x1="385.35" y1="333.85" x2="385.35" y2="333.85"/>
        <line class="cls-22" x1="347.63" y1="333.85" x2="140.2" y2="333.85"/>
        <line class="cls-21" x1="121.35" y1="333.85" x2="121.35" y2="333.85"/>
        <line class="cls-23" x1="121.35" y1="296.14" x2="121.35" y2="88.71"/>
        <line class="cls-21" x1="121.35" y1="69.85" x2="121.35" y2="69.85"/>
        <line class="cls-22" x1="159.06" y1="69.85" x2="366.49" y2="69.85"/>
        <line class="cls-21" x1="385.35" y1="69.85" x2="385.35" y2="69.85"/>
        <line class="cls-23" x1="385.35" y1="107.57" x2="385.35" y2="315"/>
      </g>
    </g>
  </g>
</svg>
